<?xml version="1.0" encoding="UTF-8"?>
<svg width="512px" height="240px" viewBox="0 0 512 240" version="1.1" xmlns="http://www.w3.org/2000/svg" xmlns:xlink="http://www.w3.org/1999/xlink">
    <g id="serasa-white-xlg" stroke="none" stroke-width="1" fill="none" fill-rule="evenodd">
        <g id="serasa-marca-white" transform="translate(0.000000, 11.000000)" fill="#FFFFFF">
            <path d="M85.8659004,174.126484 C91.7875846,174.126484 96.5864618,178.914133 96.5864618,184.847046 L96.5864618,204.767888 C96.5864618,210.7008 91.7875846,215.488449 85.8659004,215.488449 L65.9450583,215.488449 C60.0278653,215.488449 55.2267425,210.7008 55.2267425,204.767888 L55.2267425,184.847046 C55.2267425,178.914133 60.0278653,174.126484 65.9450583,174.126484 L85.8659004,174.126484 Z M40.6347425,127.5136 C45.6424618,127.5136 49.7092688,131.57367 49.7092688,136.597109 L49.7092688,153.434723 C49.7092688,158.455916 45.6424618,162.509249 40.6347425,162.509249 L23.7903916,162.509249 C18.7826723,162.509249 14.711374,158.455916 14.711374,153.434723 L14.711374,136.597109 C14.711374,131.57367 18.7826723,127.5136 23.7903916,127.5136 L40.6347425,127.5136 Z M101.016834,78.5246316 C107.816553,78.7222456 114.158167,80.4401404 119.648693,84.5428772 C121.076904,85.6162807 122.32322,87.0736842 123.259641,88.5894737 C124.429606,90.4825263 124.429606,92.6158596 123.028342,94.4999298 C121.593395,96.4199298 119.561114,97.4821053 117.245886,96.9970526 C115.031711,96.5299649 112.808553,95.7013333 110.841395,94.5852632 C106.904834,92.3531228 102.79536,91.1584561 98.2951495,91.7647719 C96.7860969,91.9691228 95.1984477,92.4092632 93.8780267,93.1435789 C89.541746,95.5688421 88.9286933,101.079579 92.6451846,104.836491 C94.2103776,106.42414 96.1191495,107.760281 98.0795705,108.851649 C102.916623,111.550877 107.917606,113.99186 112.783851,116.648421 C117.149325,119.046737 120.987079,122.078316 123.3315,126.603228 C129.111711,137.714526 125.197606,149.649965 113.976272,155.239298 C103.543149,160.428912 87.7924126,158.562807 79.1108688,151.09614 C77.4491144,149.670175 76.0411144,148.026386 75.6144477,145.812211 C74.6667986,140.824702 79.3084828,137.184561 84.3139565,139.070877 C86.0587986,139.726596 87.6936056,140.741614 89.296974,141.725193 C93.9184477,144.554667 98.8475705,145.92 104.277465,145.048702 C107.030588,144.601825 109.485044,143.571088 111.101886,141.175018 C113.262167,137.979509 112.572764,134.083368 109.291921,130.676772 C106.639851,127.90793 103.341044,126.066526 99.9636407,124.362105 C95.9192898,122.325333 91.8098162,120.416561 87.8642723,118.209123 C83.3865179,115.714246 79.7576056,112.273965 77.7679916,107.445895 C73.6922021,97.5202807 77.3952197,87.3274386 86.8739565,82.0704561 C91.27536,79.6317193 96.0270793,78.6122105 101.016834,78.5246316 Z M374.302897,78.5246316 C381.102616,78.7222456 387.441985,80.4401404 392.934757,84.5428772 C394.360721,85.6162807 395.607037,87.0736842 396.543458,88.5894737 C397.715669,90.4825263 397.715669,92.6158596 396.314406,94.4999298 C394.879458,96.4199298 392.847178,97.4821053 390.531949,96.9970526 C388.315528,96.5299649 386.094616,95.7013333 384.125213,94.5852632 C380.190897,92.3531228 376.081423,91.1584561 371.581213,91.7647719 C370.07216,91.9691228 368.484511,92.4092632 367.161844,93.1435789 C362.827809,95.5688421 362.214757,101.079579 365.929002,104.836491 C367.496441,106.42414 369.402967,107.760281 371.365634,108.851649 C376.200441,111.550877 381.203669,113.99186 386.069914,116.648421 C390.435388,119.046737 394.273142,122.078316 396.617564,126.603228 C402.395528,137.714526 398.481423,149.649965 387.26009,155.239298 C376.829213,160.428912 361.078476,158.562807 352.396932,151.09614 C350.735178,149.670175 349.327178,148.026386 348.900511,145.812211 C347.952862,140.824702 352.594546,137.184561 357.597774,139.070877 C359.344862,139.726596 360.979669,140.741614 362.580792,141.725193 C367.204511,144.554667 372.133634,145.92 377.563528,145.048702 C380.314406,144.601825 382.771107,143.571088 384.387949,141.175018 C386.54823,137.979509 385.856581,134.083368 382.575739,130.676772 C379.925914,127.90793 376.627107,126.066526 373.247458,124.362105 C369.203107,122.325333 365.093634,120.416561 361.150335,118.209123 C356.672581,115.714246 353.043669,112.273965 351.051809,107.445895 C346.978265,97.5202807 350.679037,87.3274386 360.16002,82.0704561 C364.561423,79.6317193 369.313142,78.6122105 374.302897,78.5246316 Z M299.716174,78.9194105 C309.864104,78.9194105 319.095823,82.7414456 326.167262,89.0134456 L326.167262,89.0134456 L326.167262,85.7977263 C326.167262,82.4337965 329.234771,79.5279719 332.773858,79.5279719 C336.003051,79.5279719 339.23449,82.4337965 339.23449,85.7977263 L339.23449,85.7977263 L339.23449,150.967691 C339.23449,154.329375 336.003051,157.2352 332.773858,157.2352 C329.234771,157.2352 326.167262,154.329375 326.167262,150.967691 L326.167262,150.967691 L326.167262,147.751972 C319.095823,154.023972 309.864104,157.848253 299.716174,157.848253 C277.581157,157.848253 259.903683,140.262849 259.903683,118.224393 C259.903683,96.5093053 277.581157,78.9194105 299.716174,78.9194105 Z M444.990335,78.9194105 C455.140511,78.9194105 464.37223,82.7414456 471.439178,89.0134456 L471.439178,89.0134456 L471.439178,85.7977263 C471.439178,82.4337965 474.508932,79.5279719 478.04802,79.5279719 C481.277213,79.5279719 484.506406,82.4337965 484.506406,85.7977263 L484.506406,85.7977263 L484.506406,150.967691 C484.506406,154.329375 481.277213,157.2352 478.04802,157.2352 C474.508932,157.2352 471.439178,154.329375 471.439178,150.967691 L471.439178,150.967691 L471.439178,147.751972 C464.37223,154.023972 455.140511,157.848253 444.990335,157.848253 C422.857564,157.848253 405.18009,140.262849 405.18009,118.224393 C405.18009,96.5093053 422.857564,78.9194105 444.990335,78.9194105 Z M172.703795,78.9171649 C193.915865,78.9171649 211.905479,96.0489544 212.215374,116.088814 C212.215374,119.591972 209.74969,122.297937 206.857339,122.962639 C206.76976,122.989586 206.67769,122.996323 206.587865,123.018779 C206.412707,123.052463 206.242041,123.106358 206.062392,123.122077 L206.062392,123.122077 L205.779444,123.122077 C205.739023,123.122077 205.696357,123.135551 205.655935,123.135551 L205.655935,123.135551 L146.412146,123.135551 C148.722883,135.681796 159.483865,144.695691 172.703795,144.695691 C179.618041,144.695691 186.226883,142.553375 190.686672,137.81513 C192.069971,136.436323 193.915865,135.210218 195.916707,135.210218 C199.453549,135.210218 202.525549,138.273235 202.525549,141.789867 C202.525549,143.624533 201.604848,145.461446 200.219304,146.68306 C193.147865,153.720814 183.307585,157.843761 172.703795,157.843761 C150.562041,157.843761 132.87783,140.260604 132.87783,118.226639 C132.87783,96.5070596 150.562041,78.9171649 172.703795,78.9171649 Z M255.54023,78.9171649 C259.692371,78.9171649 262.764371,82.128393 262.764371,85.3396211 C262.764371,88.8562526 259.539669,92.0719719 255.54023,92.0719719 C245.239599,92.3751298 235.711458,96.0489544 235.711458,111.343832 L235.711458,111.343832 L235.711458,150.967691 C235.711458,154.331621 232.477774,157.232954 229.250827,157.232954 C225.711739,157.232954 222.639739,154.331621 222.639739,150.967691 L222.639739,150.967691 L222.639739,85.7999719 C222.639739,82.4315509 225.711739,79.5257263 229.250827,79.5257263 C232.331809,79.5257263 235.55202,82.2810947 235.711458,85.4923228 C241.089704,81.3648842 248.008441,79.0653754 255.54023,78.9171649 Z M299.716174,91.9192702 C284.805297,91.9192702 273.125858,103.544814 273.125858,118.224393 C273.125858,133.065656 284.805297,144.695691 299.716174,144.695691 C314.478841,144.695691 326.167262,133.065656 326.167262,118.224393 C326.167262,103.544814 314.478841,91.9192702 299.716174,91.9192702 Z M444.990335,91.9192702 C430.079458,91.9192702 418.40002,103.544814 418.40002,118.224393 C418.40002,133.065656 430.079458,144.695691 444.990335,144.695691 C459.753002,144.695691 471.439178,133.065656 471.439178,118.224393 C471.439178,103.544814 459.753002,91.9192702 444.990335,91.9192702 Z M172.703795,91.9215158 C160.63362,91.9215158 150.714742,99.5319018 147.335093,110.140182 L147.335093,110.140182 L197.915304,110.140182 C194.531164,99.5319018 184.621269,91.9215158 172.703795,91.9215158 Z M43.2607635,48.3359439 C51.4572548,48.3359439 58.1065179,54.985207 58.1065179,63.177207 L58.1065179,90.7645754 C58.1065179,98.9745404 51.4572548,105.603593 43.2607635,105.603593 L15.6778863,105.603593 C7.48588633,105.603593 0.836623172,98.9745404 0.836623172,90.7645754 L0.836623172,63.177207 C0.836623172,54.985207 7.48588633,48.3359439 15.6778863,48.3359439 L43.2607635,48.3359439 Z M510.1859,78.9189614 C510.879795,78.9189614 511.490602,79.532014 511.490602,80.2236632 L511.490602,89.545207 C511.490602,90.0235228 511.11783,90.3828211 510.623795,90.3828211 C510.147725,90.3828211 509.759234,90.0055579 509.759234,89.545207 L509.759234,82.5164351 C509.350532,83.715593 508.715023,85.6019088 508.236707,87.0166456 C507.367655,89.5923649 507.331725,89.6979088 507.318251,89.7248561 C507.122883,90.1672421 506.830953,90.3985404 506.458181,90.3985404 C505.982111,90.3985404 505.703655,90.0504702 505.602602,89.7248561 L503.141409,82.4984702 L503.141409,89.545207 C503.141409,90.0235228 502.768637,90.3828211 502.279093,90.3828211 C501.800778,90.3828211 501.412286,90.0055579 501.412286,89.545207 L501.412286,80.2236632 C501.412286,79.532014 502.018602,78.9189614 502.714742,78.9189614 C503.264918,78.9189614 503.781409,79.3164351 503.963304,79.8800842 L506.458181,87.171593 L508.923865,79.875593 C509.108006,79.3164351 509.626742,78.9189614 510.1859,78.9189614 Z M499.108735,78.9789193 C499.587051,78.9789193 499.946349,79.3516912 499.946349,79.8479719 C499.946349,80.3240421 499.569086,80.7080421 499.108735,80.7080421 L497.105648,80.7080421 L497.105648,89.5445333 C497.105648,90.0228491 496.735121,90.3821474 496.238841,90.3821474 C495.762771,90.3821474 495.374279,90.0071298 495.374279,89.5445333 L495.374279,80.7080421 L493.400385,80.7080421 C492.937788,80.7080421 492.562771,80.3240421 492.562771,79.8479719 C492.562771,79.3516912 492.922069,78.9789193 493.400385,78.9789193 L499.108735,78.9789193 Z M158.862728,32.1967158 C162.958728,32.1967158 166.2755,35.5269614 166.2755,39.6296982 L166.2755,53.4110316 C166.2755,57.4980491 162.958728,60.8305404 158.862728,60.8305404 L145.061185,60.8305404 C140.960693,60.8305404 137.641676,57.4980491 137.641676,53.4110316 L137.641676,39.6296982 C137.641676,35.5269614 140.960693,32.1967158 145.061185,32.1967158 L158.862728,32.1967158 Z M106.686111,0.00157192982 C113.973128,0.00157192982 119.876848,5.90978246 119.876848,13.1900632 L119.876848,37.7121684 C119.876848,44.9946947 113.973128,50.9051509 106.686111,50.9051509 L82.1684969,50.9051509 C74.8724969,50.9051509 68.9710232,44.9946947 68.9710232,37.7121684 L68.9710232,13.1900632 C68.9710232,5.90978246 74.8724969,0.00157192982 82.1684969,0.00157192982 L106.686111,0.00157192982 Z" id="Combined-Shape"></path>
        </g>
    </g>
</svg>